{
  "accessors": [
    {
      "bufferView": 2,
      "componentType": 5126,
      "count": 7018,
      "max": [
        8.762632369995117,
        11.00931167602539,
        7.007935047149658
      ],
      "min": [
        0.0,
        0.22911405563354492,
        0.05115103721618652
      ],
      "type": "VEC3"
    },
    {
      "bufferView": 2,
      "byteOffset": 84216,
      "componentType": 5126,
      "count": 7018,
      "max": [
        1.0,
        1.0,
        1.0
      ],
      "min": [
        -1.0,
        -1.0,
        -1.0
      ],
      "type": "VEC3"
    },
    {
      "bufferView": 1,
      "componentType": 5126,
      "count": 7018,
      "max": [
        0.628250002861023,
        0.38330599665641785
      ],
      "min": [
        0.0,
        0.0
      ],
      "type": "VEC2"
    },
    {
      "bufferView": 0,
      "componentType": 5125,
      "count": 37440,
      "type": "SCALAR"
    },
    {
      "bufferView": 2,
      "byteOffset": 168432,
      "componentType": 5126,
      "count": 1034,
      "max": [
        7.877241134643555,
        4.29618501663208,
        4.334929943084717
      ],
      "min": [
        0.8853912353515625,
        0.15235400199890137,
        0.7663670778274536
      ],
      "type": "VEC3"
    },
    {
      "bufferView": 2,
      "byteOffset": 180840,
      "componentType": 5126,
      "count": 1034,
      "max": [
        0.9999960660934448,
        0.9967139959335327,
        1.0
      ],
      "min": [
        -0.9999960660934448,
        -0.9999734163284302,
        -0.999984860420227
      ],
      "type": "VEC3"
    },
    {
      "bufferView": 1,
      "byteOffset": 56144,
      "componentType": 5126,
      "count": 1034,
      "max": [
        9.550865173339844,
        14.249587059020996
      ],
      "min": [
        -8.763435363769531,
        -13.264492988586426
      ],
      "type": "VEC2"
    },
    {
      "bufferView": 0,
      "byteOffset": 149760,
      "componentType": 5125,
      "count": 5676,
      "type": "SCALAR"
    },
    {
      "bufferView": 2,
      "byteOffset": 193248,
      "componentType": 5126,
      "count": 1807,
      "max": [
        6.6563310623168945,
        4.235951900482178,
        4.079555034637451
      ],
      "min": [
        2.1063010692596436,
        1.1687560081481934,
        0.9111080169677734
      ],
      "type": "VEC3"
    },
    {
      "bufferView": 2,
      "byteOffset": 214932,
      "componentType": 5126,
      "count": 1807,
      "max": [
        0.9986156225204468,
        1.0,
        0.98601233959198
      ],
      "min": [
        -0.9986156225204468,
        0.05260081961750984,
        -0.991697371006012
      ],
      "type": "VEC3"
    },
    {
      "bufferView": 1,
      "byteOffset": 64416,
      "componentType": 5126,
      "count": 1807,
      "max": [
        26.279869079589844,
        26.279869079589844
      ],
      "min": [
        -25.279869079589844,
        -25.279869079589844
      ],
      "type": "VEC2"
    },
    {
      "bufferView": 0,
      "byteOffset": 172464,
      "componentType": 5125,
      "count": 7980,
      "type": "SCALAR"
    },
    {
      "bufferView": 2,
      "byteOffset": 236616,
      "componentType": 5126,
      "count": 504,
      "max": [
        8.278300285339355,
        6.987359046936035,
        1.817391037940979
      ],
      "min": [
        0.48440122604370117,
        5.574973106384277,
        0.4051680564880371
      ],
      "type": "VEC3"
    },
    {
      "bufferView": 2,
      "byteOffset": 242664,
      "componentType": 5126,
      "count": 504,
      "max": [
        0.9987016916275024,
        0.6778771281242371,
        0.6780848503112793
      ],
      "min": [
        -0.9987016916275024,
        -0.6778771281242371,
        -0.6780848503112793
      ],
      "type": "VEC3"
    },
    {
      "bufferView": 1,
      "byteOffset": 78872,
      "componentType": 5126,
      "count": 504,
      "max": [
        11.95954418182373,
        14.003763198852539
      ],
      "min": [
        -11.45081901550293,
        -13.003443717956543
      ],
      "type": "VEC2"
    },
    {
      "bufferView": 0,
      "byteOffset": 204384,
      "componentType": 5125,
      "count": 2592,
      "type": "SCALAR"
    },
    {
      "bufferView": 2,
      "byteOffset": 248712,
      "componentType": 5126,
      "count": 2394,
      "max": [
        8.17172622680664,
        11.014408111572266,
        4.513484954833984
      ],
      "min": [
        0.5901451110839844,
        1.285080909729004,
        0.0
      ],
      "type": "VEC3"
    },
    {
      "bufferView": 2,
      "byteOffset": 277440,
      "componentType": 5126,
      "count": 2394,
      "max": [
        1.0,
        0.9999788999557495,
        0.9999788999557495
      ],
      "min": [
        -1.0,
        -0.9999992847442627,
        -0.9999788999557495
      ],
      "type": "VEC3"
    },
    {
      "bufferView": 1,
      "byteOffset": 82904,
      "componentType": 5126,
      "count": 2394,
      "max": [
        7.730528831481934,
        7.730528831481934
      ],
      "min": [
        -6.706662178039551,
        -6.730528831481934
      ],
      "type": "VEC2"
    },
    {
      "bufferView": 0,
      "byteOffset": 214752,
      "componentType": 5125,
      "count": 12048,
      "type": "SCALAR"
    },
    {
      "bufferView": 2,
      "byteOffset": 306168,
      "componentType": 5126,
      "count": 447,
      "max": [
        7.829699516296387,
        1.244094967842102,
        4.222124099731445
      ],
      "min": [
        0.9329330921173096,
        0.0,
        0.8814290761947632
      ],
      "type": "VEC3"
    },
    {
      "bufferView": 2,
      "byteOffset": 311532,
      "componentType": 5126,
      "count": 447,
      "max": [
        0.9682976603507996,
        0.44978976249694824,
        0.9627445340156555
      ],
      "min": [
        -0.9682976603507996,
        -0.9999586343765259,
        -0.9588475227355957
      ],
      "type": "VEC3"
    },
    {
      "bufferView": 1,
      "byteOffset": 102056,
      "componentType": 5126,
      "count": 447,
      "max": [
        1.2036950588226318,
        0.6347209811210632
      ],
      "min": [
        -0.1627880036830902,
        -0.08437500149011612
      ],
      "type": "VEC2"
    },
    {
      "bufferView": 0,
      "byteOffset": 262944,
      "componentType": 5125,
      "count": 2460,
      "type": "SCALAR"
    },
    {
      "bufferView": 2,
      "byteOffset": 316896,
      "componentType": 5126,
      "count": 162,
      "max": [
        5.816482067108154,
        1.824545979499817,
        2.9869680404663086
      ],
      "min": [
        2.9464261531829834,
        1.7289139032363892,
        1.9099581241607666
      ],
      "type": "VEC3"
    },
    {
      "bufferView": 2,
      "byteOffset": 318840,
      "componentType": 5126,
      "count": 162,
      "max": [
        0.09260032325983047,
        0.9957125782966614,
        -0.0
      ],
      "min": [
        -0.09260032325983047,
        0.9957034587860107,
        -0.0
      ],
      "type": "VEC3"
    },
    {
      "bufferView": 1,
      "byteOffset": 105632,
      "componentType": 5126,
      "count": 162,
      "max": [
        0.9888790249824524,
        0.9165220260620117
      ],
      "min": [
        0.0034080001059919596,
        0.03521399945020676
      ],
      "type": "VEC2"
    },
    {
      "bufferView": 0,
      "byteOffset": 272784,
      "componentType": 5125,
      "count": 720,
      "type": "SCALAR"
    }
  ],
  "asset": {
    "extras": {
      "author": "Eternal Realm (https://sketchfab.com/EternalRealm)",
      "license": "CC-BY-4.0 (http://creativecommons.org/licenses/by/4.0/)",
      "source": "https://sketchfab.com/3d-models/oculus-rift-bac8bbee5cf743aeb09087656e7d6796",
      "title": "Oculus Rift"
    },
    "generator": "Sketchfab-12.66.0",
    "version": "2.0"
  },
  "bufferViews": [
    {
      "buffer": 0,
      "byteLength": 275664,
      "name": "floatBufferViews",
      "target": 34963
    },
    {
      "buffer": 0,
      "byteLength": 106928,
      "byteOffset": 275664,
      "byteStride": 8,
      "name": "floatBufferViews",
      "target": 34962
    },
    {
      "buffer": 0,
      "byteLength": 320784,
      "byteOffset": 382592,
      "byteStride": 12,
      "name": "floatBufferViews",
      "target": 34962
    }
  ],
  "buffers": [
    {
      "byteLength": 703376,
      "uri": "scene.bin"
    }
  ],
  "images": [
    {
      "uri": "textures/base_baseColor.png"
    },
    {
      "uri": "textures/checker_baseColor.png"
    },
    {
      "uri": "textures/checker2_baseColor.png"
    },
    {
      "uri": "textures/dots_baseColor.png"
    },
    {
      "uri": "textures/foam_baseColor.png"
    },
    {
      "uri": "textures/logo_baseColor.png"
    }
  ],
  "materials": [
    {
      "doubleSided": true,
      "name": "base",
      "pbrMetallicRoughness": {
        "baseColorTexture": {
          "index": 0
        },
        "metallicFactor": 0.0,
        "roughnessFactor": 0.3397484756097561
      }
    },
    {
      "doubleSided": true,
      "name": "checker",
      "pbrMetallicRoughness": {
        "baseColorTexture": {
          "index": 1
        },
        "metallicFactor": 0.0,
        "roughnessFactor": 0.4129192073170732
      }
    },
    {
      "doubleSided": true,
      "name": "checker2",
      "pbrMetallicRoughness": {
        "baseColorTexture": {
          "index": 2
        },
        "metallicFactor": 0.0,
        "roughnessFactor": 0.6
      }
    },
    {
      "doubleSided": true,
      "name": "dots",
      "pbrMetallicRoughness": {
        "baseColorTexture": {
          "index": 3
        },
        "metallicFactor": 0.0,
        "roughnessFactor": 0.16901676829268297
      }
    },
    {
      "doubleSided": true,
      "name": "foam",
      "pbrMetallicRoughness": {
        "baseColorTexture": {
          "index": 4
        },
        "metallicFactor": 0.0,
        "roughnessFactor": 0.6
      }
    },
    {
      "doubleSided": true,
      "name": "logo",
      "pbrMetallicRoughness": {
        "baseColorTexture": {
          "index": 5
        },
        "metallicFactor": 0.0,
        "roughnessFactor": 0.3031631097560976
      }
    },
    {
      "doubleSided": true,
      "emissiveFactor": [
        1.0,
        1.0,
        1.0
      ],
      "name": "screen",
      "pbrMetallicRoughness": {
        "metallicFactor": 0.0,
        "roughnessFactor": 0.6
      }
    }
  ],
  "meshes": [
    {
      "name": "Object_0",
      "primitives": [
        {
          "attributes": {
            "NORMAL": 1,
            "POSITION": 0,
            "TEXCOORD_0": 2
          },
          "indices": 3,
          "material": 0,
          "mode": 4
        }
      ]
    },
    {
      "name": "Object_1",
      "primitives": [
        {
          "attributes": {
            "NORMAL": 5,
            "POSITION": 4,
            "TEXCOORD_0": 6
          },
          "indices": 7,
          "material": 1,
          "mode": 4
        }
      ]
    },
    {
      "name": "Object_2",
      "primitives": [
        {
          "attributes": {
            "NORMAL": 9,
            "POSITION": 8,
            "TEXCOORD_0": 10
          },
          "indices": 11,
          "material": 2,
          "mode": 4
        }
      ]
    },
    {
      "name": "Object_3",
      "primitives": [
        {
          "attributes": {
            "NORMAL": 13,
            "POSITION": 12,
            "TEXCOORD_0": 14
          },
          "indices": 15,
          "material": 3,
          "mode": 4
        }
      ]
    },
    {
      "name": "Object_4",
      "primitives": [
        {
          "attributes": {
            "NORMAL": 17,
            "POSITION": 16,
            "TEXCOORD_0": 18
          },
          "indices": 19,
          "material": 4,
          "mode": 4
        }
      ]
    },
    {
      "name": "Object_5",
      "primitives": [
        {
          "attributes": {
            "NORMAL": 21,
            "POSITION": 20,
            "TEXCOORD_0": 22
          },
          "indices": 23,
          "material": 5,
          "mode": 4
        }
      ]
    },
    {
      "name": "Object_6",
      "primitives": [
        {
          "attributes": {
            "NORMAL": 25,
            "POSITION": 24,
            "TEXCOORD_0": 26
          },
          "indices": 27,
          "material": 6,
          "mode": 4
        }
      ]
    }
  ],
  "nodes": [
    {
      "children": [
        1
      ],
      "matrix": [
        0.0806511864066124,
        0.0,
        0.0,
        0.0,
        0.0,
        1.7908160822391305e-17,
        -0.0806511864066124,
        0.0,
        0.0,
        0.0806511864066124,
        1.7908160822391305e-17,
        0.0,
        0.0,
        0.0,
        0.0,
        1.0
      ],
      "name": "Sketchfab_model"
    },
    {
      "children": [
        2
      ],
      "matrix": [
        1.0,
        0.0,
        0.0,
        0.0,
        0.0,
        1.0,
        0.0,
        0.0,
        0.0,
        0.0,
        1.0,
        0.0,
        -4.381316184997559,
        -3.0517189502716064,
        -2.5807900428771973,
        1.0
      ],
      "name": "rift_sf.obj.cleaner.gles"
    },
    {
      "children": [
        3,
        4,
        5,
        6,
        7,
        8,
        9
      ],
      "name": "Object_2"
    },
    {
      "mesh": 0,
      "name": "Object_3"
    },
    {
      "mesh": 1,
      "name": "Object_4"
    },
    {
      "mesh": 2,
      "name": "Object_5"
    },
    {
      "mesh": 3,
      "name": "Object_6"
    },
    {
      "mesh": 4,
      "name": "Object_7"
    },
    {
      "mesh": 5,
      "name": "Object_8"
    },
    {
      "mesh": 6,
      "name": "Object_9"
    }
  ],
  "samplers": [
    {
      "magFilter": 9729,
      "minFilter": 9987,
      "wrapS": 10497,
      "wrapT": 10497
    }
  ],
  "scene": 0,
  "scenes": [
    {
      "name": "Sketchfab_Scene",
      "nodes": [
        0
      ]
    }
  ],
  "textures": [
    {
      "sampler": 0,
      "source": 0
    },
    {
      "sampler": 0,
      "source": 1
    },
    {
      "sampler": 0,
      "source": 2
    },
    {
      "sampler": 0,
      "source": 3
    },
    {
      "sampler": 0,
      "source": 4
    },
    {
      "sampler": 0,
      "source": 5
    }
  ]
}
