<svg width="49" height="47" viewBox="0 0 49 47" fill="none" xmlns="http://www.w3.org/2000/svg">
<path d="M48.3006 23.0701C48.3006 10.3289 37.4881 0 24.1503 0C10.8125 0 0 10.3287 0 23.0701C0 34.5849 8.83146 44.1293 20.3768 45.8599V29.7388H14.2449V23.0701H20.3768V17.9875C20.3768 12.2055 23.9824 9.01175 29.4987 9.01175C32.141 9.01175 34.9047 9.46234 34.9047 9.46234V15.1397H31.8595C28.8592 15.1397 27.9238 16.9181 27.9238 18.7426V23.0701H34.6217L33.551 29.7388H27.9238V45.8599C39.4691 44.1293 48.3006 34.5851 48.3006 23.0701Z" fill="#1877F2"/>
<path d="M33.5507 29.7397L34.6214 23.071H27.9235V18.7436C27.9235 16.9189 28.8591 15.1407 31.8593 15.1407H34.9045V9.46328C34.9045 9.46328 32.1408 9.0127 29.4984 9.0127C23.9821 9.0127 20.3765 12.2065 20.3765 17.9884V23.071H14.2446V29.7397H20.3765V45.8608C21.6248 46.0477 22.8865 46.1414 24.15 46.1411C25.4136 46.1415 26.6752 46.0478 27.9235 45.8608V29.7397H33.5507Z" fill="white"/>
</svg>
