<svg width="49" height="47" viewBox="0 0 49 47" fill="none" xmlns="http://www.w3.org/2000/svg">
<path d="M37.0039 0.72168H11.7451C5.59071 0.72168 0.601562 5.48767 0.601562 11.3668V35.4958C0.601562 41.3749 5.59071 46.1409 11.7451 46.1409H37.0039C43.1583 46.1409 48.1475 41.3749 48.1475 35.4958V11.3668C48.1475 5.48767 43.1583 0.72168 37.0039 0.72168Z" fill="url(#paint0_radial_0_436)"/>
<path d="M37.0039 0.72168H11.7451C5.59071 0.72168 0.601562 5.48767 0.601562 11.3668V35.4958C0.601562 41.3749 5.59071 46.1409 11.7451 46.1409H37.0039C43.1583 46.1409 48.1475 41.3749 48.1475 35.4958V11.3668C48.1475 5.48767 43.1583 0.72168 37.0039 0.72168Z" fill="url(#paint1_radial_0_436)"/>
<path d="M24.3764 5.68945C19.3325 5.68945 18.6993 5.71057 16.7184 5.79661C14.7411 5.88319 13.3915 6.18215 12.2106 6.6209C10.9889 7.07403 9.95273 7.68027 8.92047 8.66672C7.88727 9.65299 7.25265 10.6428 6.77682 11.8093C6.31621 12.9377 6.00289 14.2276 5.91393 16.1155C5.82534 18.008 5.80212 18.613 5.80212 23.4315C5.80212 28.25 5.82441 28.8529 5.9143 30.7453C6.00531 32.6341 6.31826 33.9234 6.77719 35.0514C7.2519 36.2184 7.88653 37.2083 8.91917 38.1944C9.95125 39.1813 10.9874 39.789 12.2082 40.2421C13.39 40.6809 14.7398 40.9798 16.7167 41.0664C18.6978 41.1525 19.3304 41.1736 24.3742 41.1736C29.4187 41.1736 30.0498 41.1525 32.0308 41.0664C34.008 40.9798 35.3591 40.6809 36.5409 40.2421C37.7621 39.789 38.7968 39.1813 39.8287 38.1944C40.8618 37.2083 41.4963 36.2184 41.9723 35.0519C42.4288 33.9234 42.7423 32.6337 42.8352 30.7456C42.9241 28.8533 42.9474 28.25 42.9474 23.4315C42.9474 18.613 42.9241 18.0084 42.8352 16.1158C42.7423 14.227 42.4288 12.9379 41.9723 11.8099C41.4963 10.6428 40.8618 9.65299 39.8287 8.66672C38.7956 7.67992 37.7624 7.07368 36.5398 6.62108C35.3558 6.18215 34.0054 5.88302 32.0281 5.79661C30.047 5.71057 29.4163 5.68945 24.3707 5.68945H24.3764ZM22.7103 8.88672C23.2049 8.88601 23.7566 8.88672 24.3764 8.88672C29.3355 8.88672 29.9231 8.90375 31.8814 8.98873C33.6923 9.06786 34.6751 9.35688 35.3298 9.59976C36.1966 9.92125 36.8145 10.3057 37.4642 10.9269C38.1142 11.5478 38.5165 12.1392 38.854 12.9672C39.1082 13.5917 39.4111 14.5306 39.4936 16.2604C39.5826 18.1308 39.6019 18.6925 39.6019 23.4274C39.6019 28.1624 39.5826 28.7243 39.4936 30.5944C39.4108 32.3243 39.1082 33.2632 38.854 33.8879C38.5174 34.7159 38.1142 35.3055 37.4642 35.9261C36.8141 36.547 36.197 36.9313 35.3298 37.253C34.6759 37.4969 33.6923 37.7852 31.8814 37.8644C29.9235 37.9493 29.3355 37.9678 24.3764 37.9678C19.4172 37.9678 18.8293 37.9493 16.8716 37.8644C15.0608 37.7845 14.0779 37.4955 13.4227 37.2526C12.5561 36.931 11.9368 36.5467 11.2868 35.9257C10.6368 35.3047 10.2345 34.7148 9.89702 33.8865C9.64276 33.2618 9.33984 32.3229 9.25737 30.593C9.16841 28.7227 9.15058 28.161 9.15058 23.423C9.15058 18.6852 9.16841 18.1263 9.25737 16.256C9.34021 14.5262 9.64276 13.5873 9.89702 12.9619C10.2337 12.1338 10.6368 11.5425 11.287 10.9215C11.937 10.3006 12.5561 9.9161 13.4228 9.59391C14.0775 9.34996 15.0608 9.06165 16.8716 8.98217C18.5849 8.90819 19.2489 8.88601 22.7103 8.88228V8.88672ZM34.2905 11.8326C33.06 11.8326 32.0618 12.7853 32.0618 13.9609C32.0618 15.1363 33.06 16.0899 34.2905 16.0899C35.5209 16.0899 36.5192 15.1363 36.5192 13.9609C36.5192 12.7855 35.5209 11.8319 34.2905 11.8319V11.8326ZM24.3764 14.3202C19.1092 14.3202 14.8386 18.3997 14.8386 23.4315C14.8386 28.4633 19.1092 32.5409 24.3764 32.5409C29.6438 32.5409 33.9129 28.4633 33.9129 23.4315C33.9129 18.3999 29.6434 14.3202 24.376 14.3202H24.3764ZM24.3764 17.5174C27.7955 17.5174 30.5674 20.1651 30.5674 23.4315C30.5674 26.6976 27.7955 29.3456 24.3764 29.3456C20.9572 29.3456 18.1856 26.6976 18.1856 23.4315C18.1856 20.1651 20.9572 17.5174 24.3764 17.5174Z" fill="white"/>
<defs>
<radialGradient id="paint0_radial_0_436" cx="0" cy="0" r="1" gradientUnits="userSpaceOnUse" gradientTransform="translate(13.2309 49.6391) rotate(-90) scale(45.0138 43.8267)">
<stop stop-color="#FFDD55"/>
<stop offset="0.1" stop-color="#FFDD55"/>
<stop offset="0.5" stop-color="#FF543E"/>
<stop offset="1" stop-color="#C837AB"/>
</radialGradient>
<radialGradient id="paint1_radial_0_436" cx="0" cy="0" r="1" gradientUnits="userSpaceOnUse" gradientTransform="translate(-7.36256 3.99346) rotate(78.1656) scale(20.1585 86.6649)">
<stop stop-color="#3771C8"/>
<stop offset="0.128" stop-color="#3771C8"/>
<stop offset="1" stop-color="#6600FF" stop-opacity="0"/>
</radialGradient>
</defs>
</svg>
