<svg width="48" height="47" viewBox="0 0 48 47" fill="none" xmlns="http://www.w3.org/2000/svg">
<path d="M36.5498 0.72168H11.291C5.13661 0.72168 0.147461 5.48767 0.147461 11.3668V35.4958C0.147461 41.3749 5.13661 46.1409 11.291 46.1409H36.5498C42.7042 46.1409 47.6934 41.3749 47.6934 35.4958V11.3668C47.6934 5.48767 42.7042 0.72168 36.5498 0.72168Z" fill="white"/>
<path d="M36.5498 0.72168H11.291C5.13661 0.72168 0.147461 5.48767 0.147461 11.3668V35.4958C0.147461 41.3749 5.13661 46.1409 11.291 46.1409H36.5498C42.7042 46.1409 47.6934 41.3749 47.6934 35.4958V11.3668C47.6934 5.48767 42.7042 0.72168 36.5498 0.72168Z" fill="#0A66C2"/>
<path d="M34.4537 39.3434H39.8899C40.0869 39.3434 40.2758 39.2686 40.4151 39.1356C40.5544 39.0025 40.6327 38.8221 40.6328 38.6339L40.6356 27.6619C40.6356 21.9272 39.342 17.5193 32.3265 17.5193C29.6597 17.4245 27.1448 18.7378 25.7877 20.9307C25.781 20.9413 25.7709 20.9496 25.7589 20.9543C25.7469 20.9589 25.7336 20.9597 25.7211 20.9564C25.7085 20.9532 25.6975 20.9461 25.6895 20.9363C25.6816 20.9265 25.6773 20.9145 25.6772 20.9021V18.7584C25.6772 18.5701 25.5989 18.3896 25.4596 18.2565C25.3202 18.1234 25.1313 18.0487 24.9343 18.0487H19.7753C19.5783 18.0487 19.3893 18.1234 19.25 18.2565C19.1107 18.3896 19.0324 18.5701 19.0324 18.7584V38.6328C19.0324 38.821 19.1107 39.0015 19.25 39.1346C19.3893 39.2677 19.5783 39.3425 19.7753 39.3425H25.2112C25.4082 39.3425 25.5972 39.2677 25.7365 39.1346C25.8758 39.0015 25.9541 38.821 25.9541 38.6328V28.8086C25.9541 26.0308 26.5057 23.3405 30.1108 23.3405C33.6647 23.3405 33.7107 26.5192 33.7107 28.9885V38.6337C33.7107 38.8219 33.789 39.0024 33.9283 39.1355C34.0677 39.2686 34.2566 39.3434 34.4537 39.3434ZM7.20483 11.3009C7.20483 13.406 9.01882 15.1379 11.2225 15.1379C13.4255 15.1378 15.2384 13.4047 15.2384 11.3002C15.238 9.19565 13.425 7.46387 11.2217 7.46387C9.01789 7.46387 7.20483 9.19601 7.20483 11.3009ZM8.4973 39.3434H13.9404C14.1374 39.3434 14.3264 39.2686 14.4657 39.1355C14.605 39.0024 14.6833 38.8219 14.6833 38.6337V18.7584C14.6833 18.5701 14.605 18.3896 14.4657 18.2565C14.3264 18.1234 14.1374 18.0487 13.9404 18.0487H8.4973C8.30027 18.0487 8.11131 18.1234 7.97199 18.2565C7.83267 18.3896 7.7544 18.5701 7.7544 18.7584V38.6337C7.7544 38.8219 7.83267 39.0024 7.97199 39.1355C8.11131 39.2686 8.30027 39.3434 8.4973 39.3434Z" fill="white"/>
</svg>
