<svg width="49" height="47" viewBox="0 0 49 47" fill="none" xmlns="http://www.w3.org/2000/svg">
<path d="M7.20087 0C3.39504 0 0.300781 2.95585 0.300781 6.59145V39.5487C0.300781 43.1843 3.39504 46.1402 7.20087 46.1402H41.7013C45.5071 46.1402 48.6014 43.1843 48.6014 39.5487V6.59145C48.6014 2.95585 45.5071 0 41.7013 0H7.20087ZM39.2324 8.65128L28.0413 20.8661L41.2054 37.4889H30.8983L22.8339 27.406L13.5942 37.4889H8.47307L20.4404 24.4193L7.81541 8.65128H18.3812L25.6802 17.869L34.1112 8.65128H39.2324ZM35.157 34.5639L16.8394 11.4218H13.7883L32.3107 34.5639H35.1462H35.157Z" fill="white"/>
</svg>
