{
	"asset":{
		"generator":"Khronos glTF Blender I/O v4.1.63",
		"version":"2.0"
	},
	"scene":0,
	"scenes":[
		{
			"name":"Scene",
			"nodes":[
				0,
				1,
				2,
				6,
				9,
				12
			]
		}
	],
	"nodes":[
		{
			"mesh":0,
			"name":"body",
			"rotation":[
				0.70710688829422,
				0,
				0,
				0.7071066498756409
			],
			"scale":[
				0.009999999776482582,
				0.010000000707805157,
				0.010000000707805157
			]
		},
		{
			"mesh":1,
			"name":"haire",
			"rotation":[
				0.70710688829422,
				0,
				0,
				0.7071066498756409
			],
			"scale":[
				0.009999999776482582,
				0.010000000707805157,
				0.010000000707805157
			]
		},
		{
			"mesh":2,
			"name":"dhoti",
			"rotation":[
				0.70710688829422,
				0,
				0,
				0.7071066498756409
			],
			"scale":[
				0.009999999776482582,
				0.010000000707805157,
				0.010000000707805157
			]
		},
		{
			"mesh":3,
			"name":"rudraksha.001"
		},
		{
			"mesh":4,
			"name":"rudraksha1"
		},
		{
			"mesh":5,
			"name":"rudraksha2"
		},
		{
			"children":[
				3,
				4,
				5
			],
			"name":"rudraksha",
			"rotation":[
				0.70710688829422,
				0,
				0,
				0.7071066498756409
			],
			"scale":[
				0.009999999776482582,
				0.010000000707805157,
				0.010000000707805157
			]
		},
		{
			"mesh":6,
			"name":"eye_caver_L"
		},
		{
			"mesh":7,
			"name":"eye_L.001"
		},
		{
			"children":[
				7,
				8
			],
			"name":"eye_L",
			"rotation":[
				0.70710688829422,
				0,
				0,
				0.7071066498756409
			],
			"scale":[
				0.009999999776482582,
				0.010000000707805157,
				0.010000000707805157
			]
		},
		{
			"mesh":8,
			"name":"eye_caver_R"
		},
		{
			"mesh":9,
			"name":"eye_R.001"
		},
		{
			"children":[
				10,
				11
			],
			"name":"eye_R",
			"rotation":[
				0.70710688829422,
				0,
				0,
				0.7071066498756409
			],
			"scale":[
				0.009999999776482582,
				0.010000000707805157,
				0.010000000707805157
			]
		}
	],
	"materials":[
		{
			"doubleSided":true,
			"name":"lambert3.002",
			"pbrMetallicRoughness":{
				"baseColorTexture":{
					"index":0
				},
				"metallicFactor":0
			}
		},
		{
			"doubleSided":true,
			"name":"aiStandardSurface4",
			"pbrMetallicRoughness":{
				"baseColorTexture":{
					"index":1
				},
				"metallicFactor":0,
				"roughnessFactor":0.5527864098548889
			}
		},
		{
			"doubleSided":true,
			"name":"lambert12",
			"pbrMetallicRoughness":{
				"baseColorFactor":[
					0.5389999747276306,
					0.2315765917301178,
					0.05875101312994957,
					1
				],
				"metallicFactor":0
			}
		},
		{
			"doubleSided":true,
			"name":"lambert10",
			"pbrMetallicRoughness":{
				"baseColorFactor":[
					0.12099999934434891,
					0.06702250987291336,
					0.016334999352693558,
					1
				],
				"metallicFactor":0
			}
		},
		{
			"doubleSided":true,
			"name":"blinn1.003",
			"pbrMetallicRoughness":{
				"baseColorTexture":{
					"index":2
				},
				"metallicFactor":0,
				"roughnessFactor":0.41575631499290466
			}
		},
		{
			"doubleSided":true,
			"name":"iboll_RP1X2QGM0LX193Y1QTJ25IL9N_R_eyeball_eyeba1.002",
			"pbrMetallicRoughness":{
				"baseColorTexture":{
					"index":3
				},
				"metallicFactor":0.5,
				"roughnessFactor":0.65576171875
			}
		}
	],
	"meshes":[
		{
			"name":"Mesh.051",
			"primitives":[
				{
					"attributes":{
						"POSITION":0,
						"NORMAL":1,
						"TEXCOORD_0":2
					},
					"indices":3,
					"material":0
				}
			]
		},
		{
			"name":"Mesh.052",
			"primitives":[
				{
					"attributes":{
						"POSITION":4,
						"NORMAL":5,
						"TEXCOORD_0":6
					},
					"indices":7,
					"material":1
				}
			]
		},
		{
			"name":"Mesh.053",
			"primitives":[
				{
					"attributes":{
						"POSITION":8,
						"NORMAL":9,
						"TEXCOORD_0":10
					},
					"indices":11,
					"material":2
				}
			]
		},
		{
			"name":"Mesh.054",
			"primitives":[
				{
					"attributes":{
						"POSITION":12,
						"NORMAL":13,
						"TEXCOORD_0":14
					},
					"indices":15,
					"material":3
				}
			]
		},
		{
			"name":"Mesh.055",
			"primitives":[
				{
					"attributes":{
						"POSITION":16,
						"NORMAL":17,
						"TEXCOORD_0":18
					},
					"indices":19,
					"material":3
				}
			]
		},
		{
			"name":"Mesh.056",
			"primitives":[
				{
					"attributes":{
						"POSITION":20,
						"NORMAL":21,
						"TEXCOORD_0":22
					},
					"indices":23,
					"material":3
				}
			]
		},
		{
			"name":"Mesh.057",
			"primitives":[
				{
					"attributes":{
						"POSITION":24,
						"NORMAL":25,
						"TEXCOORD_0":26
					},
					"indices":27,
					"material":4
				}
			]
		},
		{
			"name":"Mesh.058",
			"primitives":[
				{
					"attributes":{
						"POSITION":28,
						"NORMAL":29,
						"TEXCOORD_0":30
					},
					"indices":31,
					"material":5
				}
			]
		},
		{
			"name":"Mesh.060",
			"primitives":[
				{
					"attributes":{
						"POSITION":32,
						"NORMAL":33,
						"TEXCOORD_0":34
					},
					"indices":35,
					"material":4
				}
			]
		},
		{
			"name":"Mesh.059",
			"primitives":[
				{
					"attributes":{
						"POSITION":36,
						"NORMAL":37,
						"TEXCOORD_0":38
					},
					"indices":39,
					"material":5
				}
			]
		}
	],
	"textures":[
		{
			"sampler":0,
			"source":0
		},
		{
			"sampler":0,
			"source":1
		},
		{
			"sampler":0,
			"source":2
		},
		{
			"sampler":0,
			"source":2
		}
	],
	"images":[
		{
			"mimeType":"image/jpeg",
			"name":"Bpdy_Base_color",
			"uri":"Bpdy_Base_color.jpg"
		},
		{
			"mimeType":"image/png",
			"name":"haire.png-haire_Alfa.jpg",
			"uri":"haire_png-haire_Alfa_jpg.png"
		},
		{
			"mimeType":"image/jpeg",
			"name":"eye_Base",
			"uri":"eye_Base.jpg"
		}
	],
	"accessors":[
		{
			"bufferView":0,
			"componentType":5126,
			"count":54092,
			"max":[
				16.0935115814209,
				2.119476318359375,
				-0.05017852783203125
			],
			"min":[
				-16.114797592163086,
				-7.044041633605957,
				-45.53843688964844
			],
			"type":"VEC3"
		},
		{
			"bufferView":1,
			"componentType":5126,
			"count":54092,
			"type":"VEC3"
		},
		{
			"bufferView":2,
			"componentType":5126,
			"count":54092,
			"type":"VEC2"
		},
		{
			"bufferView":3,
			"componentType":5123,
			"count":80982,
			"type":"SCALAR"
		},
		{
			"bufferView":4,
			"componentType":5126,
			"count":249,
			"max":[
				0.2807398736476898,
				-4.409519195556641,
				-40.33842849731445
			],
			"min":[
				-0.7864773273468018,
				-5.6553263664245605,
				-44.96574020385742
			],
			"type":"VEC3"
		},
		{
			"bufferView":5,
			"componentType":5126,
			"count":249,
			"type":"VEC3"
		},
		{
			"bufferView":6,
			"componentType":5126,
			"count":249,
			"type":"VEC2"
		},
		{
			"bufferView":7,
			"componentType":5123,
			"count":1224,
			"type":"SCALAR"
		},
		{
			"bufferView":8,
			"componentType":5126,
			"count":62497,
			"max":[
				6.233857154846191,
				1.8840668201446533,
				-3.626085042953491
			],
			"min":[
				-6.3805437088012695,
				-8.302963256835938,
				-28.033769607543945
			],
			"type":"VEC3"
		},
		{
			"bufferView":9,
			"componentType":5126,
			"count":62497,
			"type":"VEC3"
		},
		{
			"bufferView":10,
			"componentType":5126,
			"count":62497,
			"type":"VEC2"
		},
		{
			"bufferView":11,
			"componentType":5123,
			"count":238272,
			"type":"SCALAR"
		},
		{
			"bufferView":12,
			"componentType":5126,
			"count":2964,
			"max":[
				-12.879911422729492,
				0.45293426513671875,
				-27.04866600036621
			],
			"min":[
				-14.124517440795898,
				-1.2035942077636719,
				-28.43577766418457
			],
			"type":"VEC3"
		},
		{
			"bufferView":13,
			"componentType":5126,
			"count":2964,
			"type":"VEC3"
		},
		{
			"bufferView":14,
			"componentType":5126,
			"count":2964,
			"type":"VEC2"
		},
		{
			"bufferView":15,
			"componentType":5123,
			"count":14976,
			"type":"SCALAR"
		},
		{
			"bufferView":16,
			"componentType":5126,
			"count":19836,
			"max":[
				2.3345232009887695,
				0.32435035705566406,
				-31.954809188842773
			],
			"min":[
				-2.3345232009887695,
				-5.221726894378662,
				-39.36709976196289
			],
			"type":"VEC3"
		},
		{
			"bufferView":17,
			"componentType":5126,
			"count":19836,
			"type":"VEC3"
		},
		{
			"bufferView":18,
			"componentType":5126,
			"count":19836,
			"type":"VEC2"
		},
		{
			"bufferView":19,
			"componentType":5123,
			"count":100224,
			"type":"SCALAR"
		},
		{
			"bufferView":20,
			"componentType":5126,
			"count":2964,
			"max":[
				14.124517440795898,
				0.4529380798339844,
				-27.04866600036621
			],
			"min":[
				12.879913330078125,
				-1.2035942077636719,
				-28.43577766418457
			],
			"type":"VEC3"
		},
		{
			"bufferView":21,
			"componentType":5126,
			"count":2964,
			"type":"VEC3"
		},
		{
			"bufferView":22,
			"componentType":5126,
			"count":2964,
			"type":"VEC2"
		},
		{
			"bufferView":23,
			"componentType":5123,
			"count":14976,
			"type":"SCALAR"
		},
		{
			"bufferView":24,
			"componentType":5126,
			"count":307,
			"max":[
				-0.4295575022697449,
				-0.43837136030197144,
				-41.84625244140625
			],
			"min":[
				-1.0810348987579346,
				-1.1169805526733398,
				-42.49748229980469
			],
			"type":"VEC3"
		},
		{
			"bufferView":25,
			"componentType":5126,
			"count":307,
			"type":"VEC3"
		},
		{
			"bufferView":26,
			"componentType":5126,
			"count":307,
			"type":"VEC2"
		},
		{
			"bufferView":27,
			"componentType":5123,
			"count":1728,
			"type":"SCALAR"
		},
		{
			"bufferView":28,
			"componentType":5126,
			"count":308,
			"max":[
				-0.45282652974128723,
				-0.4623560905456543,
				-41.869388580322266
			],
			"min":[
				-1.0580112934112549,
				-1.0927447080612183,
				-42.47434616088867
			],
			"type":"VEC3"
		},
		{
			"bufferView":29,
			"componentType":5126,
			"count":308,
			"type":"VEC3"
		},
		{
			"bufferView":30,
			"componentType":5126,
			"count":308,
			"type":"VEC2"
		},
		{
			"bufferView":31,
			"componentType":5123,
			"count":1728,
			"type":"SCALAR"
		},
		{
			"bufferView":32,
			"componentType":5126,
			"count":307,
			"max":[
				1.0540485382080078,
				-0.4299459457397461,
				-41.86671829223633
			],
			"min":[
				0.4436037838459015,
				-1.0678435564041138,
				-42.47701644897461
			],
			"type":"VEC3"
		},
		{
			"bufferView":33,
			"componentType":5126,
			"count":307,
			"type":"VEC3"
		},
		{
			"bufferView":34,
			"componentType":5126,
			"count":307,
			"type":"VEC2"
		},
		{
			"bufferView":35,
			"componentType":5123,
			"count":1728,
			"type":"SCALAR"
		},
		{
			"bufferView":36,
			"componentType":5126,
			"count":310,
			"max":[
				1.0513641834259033,
				-0.4327334761619568,
				-41.869388580322266
			],
			"min":[
				0.4462597370147705,
				-1.065050482749939,
				-42.47434616088867
			],
			"type":"VEC3"
		},
		{
			"bufferView":37,
			"componentType":5126,
			"count":310,
			"type":"VEC3"
		},
		{
			"bufferView":38,
			"componentType":5126,
			"count":310,
			"type":"VEC2"
		},
		{
			"bufferView":39,
			"componentType":5123,
			"count":1728,
			"type":"SCALAR"
		}
	],
	"bufferViews":[
		{
			"buffer":0,
			"byteLength":649104,
			"byteOffset":0,
			"target":34962
		},
		{
			"buffer":0,
			"byteLength":649104,
			"byteOffset":649104,
			"target":34962
		},
		{
			"buffer":0,
			"byteLength":432736,
			"byteOffset":1298208,
			"target":34962
		},
		{
			"buffer":0,
			"byteLength":161964,
			"byteOffset":1730944,
			"target":34963
		},
		{
			"buffer":0,
			"byteLength":2988,
			"byteOffset":1892908,
			"target":34962
		},
		{
			"buffer":0,
			"byteLength":2988,
			"byteOffset":1895896,
			"target":34962
		},
		{
			"buffer":0,
			"byteLength":1992,
			"byteOffset":1898884,
			"target":34962
		},
		{
			"buffer":0,
			"byteLength":2448,
			"byteOffset":1900876,
			"target":34963
		},
		{
			"buffer":0,
			"byteLength":749964,
			"byteOffset":1903324,
			"target":34962
		},
		{
			"buffer":0,
			"byteLength":749964,
			"byteOffset":2653288,
			"target":34962
		},
		{
			"buffer":0,
			"byteLength":499976,
			"byteOffset":3403252,
			"target":34962
		},
		{
			"buffer":0,
			"byteLength":476544,
			"byteOffset":3903228,
			"target":34963
		},
		{
			"buffer":0,
			"byteLength":35568,
			"byteOffset":4379772,
			"target":34962
		},
		{
			"buffer":0,
			"byteLength":35568,
			"byteOffset":4415340,
			"target":34962
		},
		{
			"buffer":0,
			"byteLength":23712,
			"byteOffset":4450908,
			"target":34962
		},
		{
			"buffer":0,
			"byteLength":29952,
			"byteOffset":4474620,
			"target":34963
		},
		{
			"buffer":0,
			"byteLength":238032,
			"byteOffset":4504572,
			"target":34962
		},
		{
			"buffer":0,
			"byteLength":238032,
			"byteOffset":4742604,
			"target":34962
		},
		{
			"buffer":0,
			"byteLength":158688,
			"byteOffset":4980636,
			"target":34962
		},
		{
			"buffer":0,
			"byteLength":200448,
			"byteOffset":5139324,
			"target":34963
		},
		{
			"buffer":0,
			"byteLength":35568,
			"byteOffset":5339772,
			"target":34962
		},
		{
			"buffer":0,
			"byteLength":35568,
			"byteOffset":5375340,
			"target":34962
		},
		{
			"buffer":0,
			"byteLength":23712,
			"byteOffset":5410908,
			"target":34962
		},
		{
			"buffer":0,
			"byteLength":29952,
			"byteOffset":5434620,
			"target":34963
		},
		{
			"buffer":0,
			"byteLength":3684,
			"byteOffset":5464572,
			"target":34962
		},
		{
			"buffer":0,
			"byteLength":3684,
			"byteOffset":5468256,
			"target":34962
		},
		{
			"buffer":0,
			"byteLength":2456,
			"byteOffset":5471940,
			"target":34962
		},
		{
			"buffer":0,
			"byteLength":3456,
			"byteOffset":5474396,
			"target":34963
		},
		{
			"buffer":0,
			"byteLength":3696,
			"byteOffset":5477852,
			"target":34962
		},
		{
			"buffer":0,
			"byteLength":3696,
			"byteOffset":5481548,
			"target":34962
		},
		{
			"buffer":0,
			"byteLength":2464,
			"byteOffset":5485244,
			"target":34962
		},
		{
			"buffer":0,
			"byteLength":3456,
			"byteOffset":5487708,
			"target":34963
		},
		{
			"buffer":0,
			"byteLength":3684,
			"byteOffset":5491164,
			"target":34962
		},
		{
			"buffer":0,
			"byteLength":3684,
			"byteOffset":5494848,
			"target":34962
		},
		{
			"buffer":0,
			"byteLength":2456,
			"byteOffset":5498532,
			"target":34962
		},
		{
			"buffer":0,
			"byteLength":3456,
			"byteOffset":5500988,
			"target":34963
		},
		{
			"buffer":0,
			"byteLength":3720,
			"byteOffset":5504444,
			"target":34962
		},
		{
			"buffer":0,
			"byteLength":3720,
			"byteOffset":5508164,
			"target":34962
		},
		{
			"buffer":0,
			"byteLength":2480,
			"byteOffset":5511884,
			"target":34962
		},
		{
			"buffer":0,
			"byteLength":3456,
			"byteOffset":5514364,
			"target":34963
		}
	],
	"samplers":[
		{
			"magFilter":9729,
			"minFilter":9987
		}
	],
	"buffers":[
		{
			"byteLength":5517820,
			"uri":"Hindu.bin"
		}
	]
}
