{
	"asset":{
		"generator":"Khronos glTF Blender I/O v4.1.63",
		"version":"2.0"
	},
	"scene":0,
	"scenes":[
		{
			"name":"Scene",
			"nodes":[
				16
			]
		}
	],
	"nodes":[
		{
			"mesh":0,
			"name":"group17group16group14group13eyeLeft_lod0_mesh1"
		},
		{
			"mesh":1,
			"name":"group17group16group14group13eyeRight_lod0_mesh"
		},
		{
			"mesh":2,
			"name":"group17group16group14group13m_med_nrw_body_lod0_mesh"
		},
		{
			"mesh":3,
			"name":"group17group16group14group13teeth_lod0_mesh"
		},
		{
			"mesh":4,
			"name":"haire_Group16604"
		},
		{
			"mesh":5,
			"name":"haire_Group33191"
		},
		{
			"mesh":6,
			"name":"haire_Group62369"
		},
		{
			"mesh":7,
			"name":"head_Group17"
		},
		{
			"mesh":8,
			"name":"Low_polly_fabric_Group20434"
		},
		{
			"mesh":9,
			"name":"Low_polly_pagadi_Group14271"
		},
		{
			"mesh":10,
			"name":"polySurface201"
		},
		{
			"mesh":11,
			"name":"polySurface209"
		},
		{
			"mesh":12,
			"name":"polySurface217"
		},
		{
			"mesh":13,
			"name":"polySurface311"
		},
		{
			"mesh":14,
			"name":"polySurface366"
		},
		{
			"mesh":15,
			"name":"polySurface392"
		},
		{
			"children":[
				0,
				1,
				2,
				3,
				4,
				5,
				6,
				7,
				8,
				9,
				10,
				11,
				12,
				13,
				14,
				15
			],
			"name":"group31",
			"rotation":[
				0.7071068286895752,
				0,
				0,
				0.7071068286895752
			],
			"scale":[
				0.009999999776482582,
				0.009999999776482582,
				0.009999999776482582
			]
		}
	],
	"materials":[
		{
			"doubleSided":true,
			"name":"lambert31",
			"pbrMetallicRoughness":{
				"baseColorTexture":{
					"index":0
				},
				"metallicFactor":0,
				"roughnessFactor":0.5527864098548889
			}
		},
		{
			"doubleSided":true,
			"name":"lambert36",
			"pbrMetallicRoughness":{
				"baseColorTexture":{
					"index":1
				},
				"metallicFactor":0,
				"roughnessFactor":0.5527864098548889
			}
		},
		{
			"doubleSided":true,
			"name":"lambert32",
			"pbrMetallicRoughness":{
				"baseColorTexture":{
					"index":2
				},
				"metallicFactor":0,
				"roughnessFactor":0.5527864098548889
			}
		},
		{
			"doubleSided":true,
			"name":"lambert30",
			"pbrMetallicRoughness":{
				"baseColorFactor":[
					0.5,
					0.5,
					0.5,
					1
				],
				"metallicFactor":0,
				"roughnessFactor":0.5527864098548889
			}
		},
		{
			"doubleSided":true,
			"name":"lambert33",
			"pbrMetallicRoughness":{
				"baseColorFactor":[
					0.5,
					0.5,
					0.5,
					1
				],
				"metallicFactor":0,
				"roughnessFactor":0.5527864098548889
			}
		},
		{
			"doubleSided":true,
			"name":"lambert29",
			"pbrMetallicRoughness":{
				"baseColorFactor":[
					0.5,
					0.5,
					0.5,
					1
				],
				"metallicFactor":0,
				"roughnessFactor":0.5527864098548889
			}
		},
		{
			"doubleSided":true,
			"name":"lambert40",
			"pbrMetallicRoughness":{
				"baseColorFactor":[
					0.5,
					0.5,
					0.5,
					1
				],
				"metallicFactor":0,
				"roughnessFactor":0.5527864098548889
			}
		},
		{
			"doubleSided":true,
			"name":"lambert28",
			"pbrMetallicRoughness":{
				"baseColorTexture":{
					"index":3
				},
				"metallicFactor":0,
				"roughnessFactor":0.5527864098548889
			}
		},
		{
			"doubleSided":true,
			"name":"lambert37",
			"pbrMetallicRoughness":{
				"baseColorTexture":{
					"index":4
				},
				"metallicFactor":0,
				"roughnessFactor":0.5527864098548889
			}
		},
		{
			"doubleSided":true,
			"name":"lambert35",
			"pbrMetallicRoughness":{
				"baseColorTexture":{
					"index":5
				},
				"metallicFactor":0,
				"roughnessFactor":0.5527864098548889
			}
		},
		{
			"doubleSided":true,
			"name":"aiStandardSurface1",
			"pbrMetallicRoughness":{
				"baseColorFactor":[
					1,
					0.3769029378890991,
					0,
					1
				],
				"roughnessFactor":0.5527864098548889
			}
		}
	],
	"meshes":[
		{
			"name":"Mesh.004",
			"primitives":[
				{
					"attributes":{
						"POSITION":0,
						"NORMAL":1,
						"TEXCOORD_0":2
					},
					"indices":3,
					"material":0
				}
			]
		},
		{
			"name":"Mesh.009",
			"primitives":[
				{
					"attributes":{
						"POSITION":4,
						"NORMAL":5,
						"TEXCOORD_0":6
					},
					"indices":7,
					"material":1
				}
			]
		},
		{
			"name":"Mesh.012",
			"primitives":[
				{
					"attributes":{
						"POSITION":8,
						"NORMAL":9,
						"TEXCOORD_0":10
					},
					"indices":11,
					"material":2
				}
			]
		},
		{
			"name":"Mesh.008",
			"primitives":[
				{
					"attributes":{
						"POSITION":12,
						"NORMAL":13,
						"TEXCOORD_0":14
					},
					"indices":15,
					"material":3
				}
			]
		},
		{
			"name":"Mesh.003",
			"primitives":[
				{
					"attributes":{
						"POSITION":16,
						"NORMAL":17
					},
					"indices":18,
					"material":4
				}
			]
		},
		{
			"name":"Mesh.010",
			"primitives":[
				{
					"attributes":{
						"POSITION":19,
						"NORMAL":20,
						"TEXCOORD_0":21
					},
					"indices":22,
					"material":5
				}
			]
		},
		{
			"name":"Mesh.002",
			"primitives":[
				{
					"attributes":{
						"POSITION":23,
						"NORMAL":24,
						"TEXCOORD_0":25
					},
					"indices":26,
					"material":6
				}
			]
		},
		{
			"name":"Mesh.001",
			"primitives":[
				{
					"attributes":{
						"POSITION":27,
						"NORMAL":28,
						"TEXCOORD_0":29
					},
					"indices":30,
					"material":7
				}
			]
		},
		{
			"name":"Mesh.007",
			"primitives":[
				{
					"attributes":{
						"POSITION":31,
						"NORMAL":32,
						"TEXCOORD_0":33
					},
					"indices":34,
					"material":8
				}
			]
		},
		{
			"name":"Mesh.006",
			"primitives":[
				{
					"attributes":{
						"POSITION":35,
						"NORMAL":36,
						"TEXCOORD_0":37
					},
					"indices":38,
					"material":9
				}
			]
		},
		{
			"name":"Mesh",
			"primitives":[
				{
					"attributes":{
						"POSITION":39,
						"NORMAL":40,
						"TEXCOORD_0":41
					},
					"indices":42,
					"material":10
				}
			]
		},
		{
			"name":"Mesh.014",
			"primitives":[
				{
					"attributes":{
						"POSITION":43,
						"NORMAL":44,
						"TEXCOORD_0":45
					},
					"indices":46,
					"material":10
				}
			]
		},
		{
			"name":"Mesh.013",
			"primitives":[
				{
					"attributes":{
						"POSITION":47,
						"NORMAL":48,
						"TEXCOORD_0":49
					},
					"indices":50,
					"material":10
				}
			]
		},
		{
			"name":"Mesh.016",
			"primitives":[
				{
					"attributes":{
						"POSITION":51,
						"NORMAL":52,
						"TEXCOORD_0":53
					},
					"indices":54,
					"material":10
				}
			]
		},
		{
			"name":"Mesh.015",
			"primitives":[
				{
					"attributes":{
						"POSITION":55,
						"NORMAL":56,
						"TEXCOORD_0":57
					},
					"indices":58,
					"material":10
				}
			]
		},
		{
			"name":"Mesh.017",
			"primitives":[
				{
					"attributes":{
						"POSITION":59,
						"NORMAL":60,
						"TEXCOORD_0":61
					},
					"indices":62,
					"material":10
				}
			]
		}
	],
	"textures":[
		{
			"sampler":0,
			"source":0
		},
		{
			"sampler":0,
			"source":0
		},
		{
			"sampler":0,
			"source":1
		},
		{
			"sampler":0,
			"source":2
		},
		{
			"sampler":0,
			"source":3
		},
		{
			"sampler":0,
			"source":4
		}
	],
	"images":[
		{
			"mimeType":"image/png",
			"name":"eyes_color_map",
			"uri":"eyes_color_map.png"
		},
		{
			"mimeType":"image/png",
			"name":"body_color_map",
			"uri":"body_color_map.png"
		},
		{
			"mimeType":"image/png",
			"name":"head_color_map",
			"uri":"head_color_map.png"
		},
		{
			"mimeType":"image/png",
			"name":"fabric_Base_color",
			"uri":"fabric_Base_color.png"
		},
		{
			"mimeType":"image/png",
			"name":"Pagadi_Base_color",
			"uri":"Pagadi_Base_color.png"
		}
	],
	"accessors":[
		{
			"bufferView":0,
			"componentType":5126,
			"count":805,
			"max":[
				0.6239466667175293,
				1.4224853515625,
				-22.839237213134766
			],
			"min":[
				0.251850962638855,
				1.052886962890625,
				-23.209699630737305
			],
			"type":"VEC3"
		},
		{
			"bufferView":1,
			"componentType":5126,
			"count":805,
			"type":"VEC3"
		},
		{
			"bufferView":2,
			"componentType":5126,
			"count":805,
			"type":"VEC2"
		},
		{
			"bufferView":3,
			"componentType":5123,
			"count":4608,
			"type":"SCALAR"
		},
		{
			"bufferView":4,
			"componentType":5126,
			"count":805,
			"max":[
				-0.24930739402770996,
				1.4208984375,
				-22.8392391204834
			],
			"min":[
				-0.6242423057556152,
				1.0480804443359375,
				-23.212526321411133
			],
			"type":"VEC3"
		},
		{
			"bufferView":5,
			"componentType":5126,
			"count":805,
			"type":"VEC3"
		},
		{
			"bufferView":6,
			"componentType":5126,
			"count":805,
			"type":"VEC2"
		},
		{
			"bufferView":7,
			"componentType":5123,
			"count":4608,
			"type":"SCALAR"
		},
		{
			"bufferView":8,
			"componentType":5126,
			"count":17734,
			"max":[
				7.422252655029297,
				3.5245132446289062,
				-0.18206465244293213
			],
			"min":[
				-7.422248840332031,
				-0.7822408676147461,
				-14.757665634155273
			],
			"type":"VEC3"
		},
		{
			"bufferView":9,
			"componentType":5126,
			"count":17734,
			"type":"VEC3"
		},
		{
			"bufferView":10,
			"componentType":5126,
			"count":17734,
			"type":"VEC2"
		},
		{
			"bufferView":11,
			"componentType":5123,
			"count":97728,
			"type":"SCALAR"
		},
		{
			"bufferView":12,
			"componentType":5126,
			"count":4589,
			"max":[
				0.4534895420074463,
				1.36700439453125,
				-21.62322425842285
			],
			"min":[
				-0.4501373767852783,
				0.2981109619140625,
				-22.32547378540039
			],
			"type":"VEC3"
		},
		{
			"bufferView":13,
			"componentType":5126,
			"count":4589,
			"type":"VEC3"
		},
		{
			"bufferView":14,
			"componentType":5126,
			"count":4589,
			"type":"VEC2"
		},
		{
			"bufferView":15,
			"componentType":5123,
			"count":25050,
			"type":"SCALAR"
		},
		{
			"bufferView":16,
			"componentType":5126,
			"count":213454,
			"max":[
				0.9156899452209473,
				1.735870361328125,
				-21.831985473632812
			],
			"min":[
				-0.9313015937805176,
				0.9589385986328125,
				-22.391523361206055
			],
			"type":"VEC3"
		},
		{
			"bufferView":17,
			"componentType":5126,
			"count":213454,
			"type":"VEC3"
		},
		{
			"bufferView":18,
			"componentType":5125,
			"count":324636,
			"type":"SCALAR"
		},
		{
			"bufferView":19,
			"componentType":5126,
			"count":1001314,
			"max":[
				1.4937858581542969,
				2.116241455078125,
				-19.616724014282227
			],
			"min":[
				-1.4468069076538086,
				0.1030120849609375,
				-22.60093879699707
			],
			"type":"VEC3"
		},
		{
			"bufferView":20,
			"componentType":5126,
			"count":1001314,
			"type":"VEC3"
		},
		{
			"bufferView":21,
			"componentType":5126,
			"count":1001314,
			"type":"VEC2"
		},
		{
			"bufferView":22,
			"componentType":5125,
			"count":1502202,
			"type":"SCALAR"
		},
		{
			"bufferView":23,
			"componentType":5126,
			"count":61562,
			"max":[
				0.831779956817627,
				1.6294708251953125,
				-23.001937866210938
			],
			"min":[
				-0.9375319480895996,
				1.1348114013671875,
				-23.311256408691406
			],
			"type":"VEC3"
		},
		{
			"bufferView":24,
			"componentType":5126,
			"count":61562,
			"type":"VEC3"
		},
		{
			"bufferView":25,
			"componentType":5126,
			"count":61562,
			"type":"VEC2"
		},
		{
			"bufferView":26,
			"componentType":5123,
			"count":102180,
			"type":"SCALAR"
		},
		{
			"bufferView":27,
			"componentType":5126,
			"count":24412,
			"max":[
				2.561976432800293,
				1.8785247802734375,
				-19.194433212280273
			],
			"min":[
				-2.482407569885254,
				-1.6557464599609375,
				-24.499393463134766
			],
			"type":"VEC3"
		},
		{
			"bufferView":28,
			"componentType":5126,
			"count":24412,
			"type":"VEC3"
		},
		{
			"bufferView":29,
			"componentType":5126,
			"count":24412,
			"type":"VEC2"
		},
		{
			"bufferView":30,
			"componentType":5123,
			"count":144012,
			"type":"SCALAR"
		},
		{
			"bufferView":31,
			"componentType":5126,
			"count":19393,
			"max":[
				6.054893493652344,
				3.103504180908203,
				-1.0859071016311646
			],
			"min":[
				-6.0366668701171875,
				-1.9477996826171875,
				-21.881643295288086
			],
			"type":"VEC3"
		},
		{
			"bufferView":32,
			"componentType":5126,
			"count":19393,
			"type":"VEC3"
		},
		{
			"bufferView":33,
			"componentType":5126,
			"count":19393,
			"type":"VEC2"
		},
		{
			"bufferView":34,
			"componentType":5123,
			"count":110472,
			"type":"SCALAR"
		},
		{
			"bufferView":35,
			"componentType":5126,
			"count":4719,
			"max":[
				2.9439620971679688,
				2.2544097900390625,
				-21.88556480407715
			],
			"min":[
				-2.9730587005615234,
				-3.092864990234375,
				-26.9000186920166
			],
			"type":"VEC3"
		},
		{
			"bufferView":36,
			"componentType":5126,
			"count":4719,
			"type":"VEC3"
		},
		{
			"bufferView":37,
			"componentType":5126,
			"count":4719,
			"type":"VEC2"
		},
		{
			"bufferView":38,
			"componentType":5123,
			"count":27624,
			"type":"SCALAR"
		},
		{
			"bufferView":39,
			"componentType":5126,
			"count":18879,
			"max":[
				1.2853751182556152,
				2.0608978271484375,
				-17.459909439086914
			],
			"min":[
				-1.2853751182556152,
				-0.933319091796875,
				-21.601634979248047
			],
			"type":"VEC3"
		},
		{
			"bufferView":40,
			"componentType":5126,
			"count":18879,
			"type":"VEC3"
		},
		{
			"bufferView":41,
			"componentType":5126,
			"count":18879,
			"type":"VEC2"
		},
		{
			"bufferView":42,
			"componentType":5123,
			"count":86976,
			"type":"SCALAR"
		},
		{
			"bufferView":43,
			"componentType":5126,
			"count":2628,
			"max":[
				-4.904693126678467,
				2.265678644180298,
				-13.787653923034668
			],
			"min":[
				-6.8417487144470215,
				0.12040309607982635,
				-15.896154403686523
			],
			"type":"VEC3"
		},
		{
			"bufferView":44,
			"componentType":5126,
			"count":2628,
			"type":"VEC3"
		},
		{
			"bufferView":45,
			"componentType":5126,
			"count":2628,
			"type":"VEC2"
		},
		{
			"bufferView":46,
			"componentType":5123,
			"count":15360,
			"type":"SCALAR"
		},
		{
			"bufferView":47,
			"componentType":5126,
			"count":2628,
			"max":[
				6.8417487144470215,
				2.265678644180298,
				-13.787653923034668
			],
			"min":[
				4.904693126678467,
				0.12040309607982635,
				-15.896154403686523
			],
			"type":"VEC3"
		},
		{
			"bufferView":48,
			"componentType":5126,
			"count":2628,
			"type":"VEC3"
		},
		{
			"bufferView":49,
			"componentType":5126,
			"count":2628,
			"type":"VEC2"
		},
		{
			"bufferView":50,
			"componentType":5123,
			"count":15360,
			"type":"SCALAR"
		},
		{
			"bufferView":51,
			"componentType":5126,
			"count":3198,
			"max":[
				1.2783125638961792,
				2.296318769454956,
				-24.63849449157715
			],
			"min":[
				0.09731484949588776,
				1.7299799919128418,
				-26.672517776489258
			],
			"type":"VEC3"
		},
		{
			"bufferView":52,
			"componentType":5126,
			"count":3198,
			"type":"VEC3"
		},
		{
			"bufferView":53,
			"componentType":5126,
			"count":3198,
			"type":"VEC2"
		},
		{
			"bufferView":54,
			"componentType":5123,
			"count":14784,
			"type":"SCALAR"
		},
		{
			"bufferView":55,
			"componentType":5126,
			"count":9778,
			"max":[
				0.3082249164581299,
				2.2937400341033936,
				-24.389774322509766
			],
			"min":[
				-0.30705270171165466,
				2.122154474258423,
				-25.724477767944336
			],
			"type":"VEC3"
		},
		{
			"bufferView":56,
			"componentType":5126,
			"count":9778,
			"type":"VEC3"
		},
		{
			"bufferView":57,
			"componentType":5126,
			"count":9778,
			"type":"VEC2"
		},
		{
			"bufferView":58,
			"componentType":5123,
			"count":42924,
			"type":"SCALAR"
		},
		{
			"bufferView":59,
			"componentType":5126,
			"count":3198,
			"max":[
				-0.09731484949588776,
				2.3333659172058105,
				-24.583293914794922
			],
			"min":[
				-1.2783125638961792,
				1.7670270204544067,
				-26.61731719970703
			],
			"type":"VEC3"
		},
		{
			"bufferView":60,
			"componentType":5126,
			"count":3198,
			"type":"VEC3"
		},
		{
			"bufferView":61,
			"componentType":5126,
			"count":3198,
			"type":"VEC2"
		},
		{
			"bufferView":62,
			"componentType":5123,
			"count":14784,
			"type":"SCALAR"
		}
	],
	"bufferViews":[
		{
			"buffer":0,
			"byteLength":9660,
			"byteOffset":0,
			"target":34962
		},
		{
			"buffer":0,
			"byteLength":9660,
			"byteOffset":9660,
			"target":34962
		},
		{
			"buffer":0,
			"byteLength":6440,
			"byteOffset":19320,
			"target":34962
		},
		{
			"buffer":0,
			"byteLength":9216,
			"byteOffset":25760,
			"target":34963
		},
		{
			"buffer":0,
			"byteLength":9660,
			"byteOffset":34976,
			"target":34962
		},
		{
			"buffer":0,
			"byteLength":9660,
			"byteOffset":44636,
			"target":34962
		},
		{
			"buffer":0,
			"byteLength":6440,
			"byteOffset":54296,
			"target":34962
		},
		{
			"buffer":0,
			"byteLength":9216,
			"byteOffset":60736,
			"target":34963
		},
		{
			"buffer":0,
			"byteLength":212808,
			"byteOffset":69952,
			"target":34962
		},
		{
			"buffer":0,
			"byteLength":212808,
			"byteOffset":282760,
			"target":34962
		},
		{
			"buffer":0,
			"byteLength":141872,
			"byteOffset":495568,
			"target":34962
		},
		{
			"buffer":0,
			"byteLength":195456,
			"byteOffset":637440,
			"target":34963
		},
		{
			"buffer":0,
			"byteLength":55068,
			"byteOffset":832896,
			"target":34962
		},
		{
			"buffer":0,
			"byteLength":55068,
			"byteOffset":887964,
			"target":34962
		},
		{
			"buffer":0,
			"byteLength":36712,
			"byteOffset":943032,
			"target":34962
		},
		{
			"buffer":0,
			"byteLength":50100,
			"byteOffset":979744,
			"target":34963
		},
		{
			"buffer":0,
			"byteLength":2561448,
			"byteOffset":1029844,
			"target":34962
		},
		{
			"buffer":0,
			"byteLength":2561448,
			"byteOffset":3591292,
			"target":34962
		},
		{
			"buffer":0,
			"byteLength":1298544,
			"byteOffset":6152740,
			"target":34963
		},
		{
			"buffer":0,
			"byteLength":12015768,
			"byteOffset":7451284,
			"target":34962
		},
		{
			"buffer":0,
			"byteLength":12015768,
			"byteOffset":19467052,
			"target":34962
		},
		{
			"buffer":0,
			"byteLength":8010512,
			"byteOffset":31482820,
			"target":34962
		},
		{
			"buffer":0,
			"byteLength":6008808,
			"byteOffset":39493332,
			"target":34963
		},
		{
			"buffer":0,
			"byteLength":738744,
			"byteOffset":45502140,
			"target":34962
		},
		{
			"buffer":0,
			"byteLength":738744,
			"byteOffset":46240884,
			"target":34962
		},
		{
			"buffer":0,
			"byteLength":492496,
			"byteOffset":46979628,
			"target":34962
		},
		{
			"buffer":0,
			"byteLength":204360,
			"byteOffset":47472124,
			"target":34963
		},
		{
			"buffer":0,
			"byteLength":292944,
			"byteOffset":47676484,
			"target":34962
		},
		{
			"buffer":0,
			"byteLength":292944,
			"byteOffset":47969428,
			"target":34962
		},
		{
			"buffer":0,
			"byteLength":195296,
			"byteOffset":48262372,
			"target":34962
		},
		{
			"buffer":0,
			"byteLength":288024,
			"byteOffset":48457668,
			"target":34963
		},
		{
			"buffer":0,
			"byteLength":232716,
			"byteOffset":48745692,
			"target":34962
		},
		{
			"buffer":0,
			"byteLength":232716,
			"byteOffset":48978408,
			"target":34962
		},
		{
			"buffer":0,
			"byteLength":155144,
			"byteOffset":49211124,
			"target":34962
		},
		{
			"buffer":0,
			"byteLength":220944,
			"byteOffset":49366268,
			"target":34963
		},
		{
			"buffer":0,
			"byteLength":56628,
			"byteOffset":49587212,
			"target":34962
		},
		{
			"buffer":0,
			"byteLength":56628,
			"byteOffset":49643840,
			"target":34962
		},
		{
			"buffer":0,
			"byteLength":37752,
			"byteOffset":49700468,
			"target":34962
		},
		{
			"buffer":0,
			"byteLength":55248,
			"byteOffset":49738220,
			"target":34963
		},
		{
			"buffer":0,
			"byteLength":226548,
			"byteOffset":49793468,
			"target":34962
		},
		{
			"buffer":0,
			"byteLength":226548,
			"byteOffset":50020016,
			"target":34962
		},
		{
			"buffer":0,
			"byteLength":151032,
			"byteOffset":50246564,
			"target":34962
		},
		{
			"buffer":0,
			"byteLength":173952,
			"byteOffset":50397596,
			"target":34963
		},
		{
			"buffer":0,
			"byteLength":31536,
			"byteOffset":50571548,
			"target":34962
		},
		{
			"buffer":0,
			"byteLength":31536,
			"byteOffset":50603084,
			"target":34962
		},
		{
			"buffer":0,
			"byteLength":21024,
			"byteOffset":50634620,
			"target":34962
		},
		{
			"buffer":0,
			"byteLength":30720,
			"byteOffset":50655644,
			"target":34963
		},
		{
			"buffer":0,
			"byteLength":31536,
			"byteOffset":50686364,
			"target":34962
		},
		{
			"buffer":0,
			"byteLength":31536,
			"byteOffset":50717900,
			"target":34962
		},
		{
			"buffer":0,
			"byteLength":21024,
			"byteOffset":50749436,
			"target":34962
		},
		{
			"buffer":0,
			"byteLength":30720,
			"byteOffset":50770460,
			"target":34963
		},
		{
			"buffer":0,
			"byteLength":38376,
			"byteOffset":50801180,
			"target":34962
		},
		{
			"buffer":0,
			"byteLength":38376,
			"byteOffset":50839556,
			"target":34962
		},
		{
			"buffer":0,
			"byteLength":25584,
			"byteOffset":50877932,
			"target":34962
		},
		{
			"buffer":0,
			"byteLength":29568,
			"byteOffset":50903516,
			"target":34963
		},
		{
			"buffer":0,
			"byteLength":117336,
			"byteOffset":50933084,
			"target":34962
		},
		{
			"buffer":0,
			"byteLength":117336,
			"byteOffset":51050420,
			"target":34962
		},
		{
			"buffer":0,
			"byteLength":78224,
			"byteOffset":51167756,
			"target":34962
		},
		{
			"buffer":0,
			"byteLength":85848,
			"byteOffset":51245980,
			"target":34963
		},
		{
			"buffer":0,
			"byteLength":38376,
			"byteOffset":51331828,
			"target":34962
		},
		{
			"buffer":0,
			"byteLength":38376,
			"byteOffset":51370204,
			"target":34962
		},
		{
			"buffer":0,
			"byteLength":25584,
			"byteOffset":51408580,
			"target":34962
		},
		{
			"buffer":0,
			"byteLength":29568,
			"byteOffset":51434164,
			"target":34963
		}
	],
	"samplers":[
		{
			"magFilter":9729,
			"minFilter":9987
		}
	],
	"buffers":[
		{
			"byteLength":51463732,
			"uri":"SardarJi.bin"
		}
	]
}
